<svg xmlns="http://www.w3.org/2000/svg" width="25" height="25" viewBox="0 0 18 25">
  <g fill="#f224f2">
    <g id="logomark" class="logo-logomark">
      <path id="logo-mouth" d="M18 14.5L15.3 14.5C15.3 14.6 15.3 14.7 15.3 14.8 15.3 18.8 12 21.2 9 21.2 6 21.2 2.7 18.8 2.7 14.8 2.7 14.7 2.7 14.6 2.7 14.5L0 14.5C0 14.6 0 14.7 0 14.8 0 20.3 4.5 23.9 9 23.9 13.5 23.9 18 20.3 18 14.8 18 14.7 18 14.6 18 14.5Z"></path>
      <path id="logo-hat" d="M9 3.4L10.9 6 14.3 6C12.7 3.9 11 1.8 9 0 7 1.8 5.3 3.9 3.7 6L7.1 6 9 3.4Z"></path>
      <g id="logo-eyes">
        <ellipse id="logo-eye-left" cx="3.6" cy="10.3" rx="1.8" ry="1.8"></ellipse>
        <ellipse id="logo-eye-center" cx="9" cy="10.3" rx="1.8" ry="1.8"></ellipse>
        <ellipse id="logo-eye-right" cx="14.4" cy="10.3" rx="1.8" ry="1.8"></ellipse>
      </g>
    </g>
  </g>
</svg>
