<?xml version="1.0" encoding="UTF-8"?><svg xmlns="http://www.w3.org/2000/svg" xmlns:xlink="http://www.w3.org/1999/xlink" viewBox="0 0 50 50" version="1.1"><path d="M25 4c-5.512 0-10 4.488-10 10 0 3.29 1.633 6.176 4.094 8l-4.969 8.188c-1.016-.301-2.145-.223-3.125.343C9.098 31.63 8.434 34.098 9.531 36c1.098 1.902 3.567 2.566 5.469 1.469 1.902-1.098 2.566-3.567 1.469-5.469a3.95 3.95 0 0 0-.625-.781l5.437-8.938.532-.875-.875-.5A8.011 8.011 0 0 1 17 14c0-4.43 3.57-8 8-8s8 3.57 8 8c0 .824-.113 1.598-.344 2.344l1.907.593c.289-.933.437-1.914.437-2.937 0-5.512-4.488-10-10-10zm0 6c-2.2 0-4 1.8-4 4s1.8 4 4 4c.332 0 .66-.047.969-.125l4.812 8.719.469.875.906-.469A7.888 7.888 0 0 1 36 26c4.43 0 8 3.57 8 8s-3.57 8-8 8a8.007 8.007 0 0 1-5.563-2.25l-1.375 1.438A9.998 9.998 0 0 0 36 44c5.512 0 10-4.488 10-10s-4.488-10-10-10c-1.387 0-2.672.363-3.875.875l-4.406-8C28.492 16.145 29 15.137 29 14c0-2.2-1.8-4-4-4zm0 2c1.117 0 2 .883 2 2s-.883 2-2 2-2-.883-2-2 .883-2 2-2zM10.562 24.281C6.207 25.367 3 29.324 3 34c0 5.512 4.488 10 10 10 5.156 0 9.285-3.98 9.813-9h9.343c.446 1.719 1.992 3 3.844 3 2.2 0 4-1.8 4-4s-1.8-4-4-4c-1.852 0-3.398 1.281-3.844 3H21v1c0 4.43-3.57 8-8 8s-8-3.57-8-8c0-3.758 2.586-6.883 6.063-7.75zM12.75 32a1.982 1.982 0 0 1 1.969 1c.558.969.25 2.16-.719 2.719-.969.558-2.16.25-2.719-.719-.558-.969-.25-2.16.719-2.719.242-.14.492-.25.75-.281zM36 32c1.117 0 2 .883 2 2s-.883 2-2 2-2-.883-2-2 .883-2 2-2z" id="surface1"/><metadata><rdf:RDF xmlns:rdf="http://www.w3.org/1999/02/22-rdf-syntax-ns#" xmlns:rdfs="http://www.w3.org/2000/01/rdf-schema#" xmlns:dc="http://purl.org/dc/elements/1.1/"><rdf:Description about="https://iconscout.com/legal#licenses" dc:title="webhook" dc:description="webhook" dc:publisher="Iconscout" dc:date="2017-12-09" dc:format="image/svg+xml" dc:language="en"><dc:creator><rdf:Bag><rdf:li>Icons8</rdf:li></rdf:Bag></dc:creator></rdf:Description></rdf:RDF></metadata></svg>